<svg width="25" height="24" viewBox="0 0 25 24" fill="none" xmlns="http://www.w3.org/2000/svg">
    <path
        d="M9.6813 5.48782H21.5089C21.8336 5.48782 22.0698 5.79287 21.9812 6.10774L20.6134 11.3426C20.5544 11.5591 20.3576 11.7067 20.1411 11.7067H9.55338C8.98266 11.7067 8.51035 12.1691 8.51035 12.7497C8.51035 13.3204 8.97282 13.7927 9.55338 13.7927H20.6528"
        stroke="currentColor" stroke-miterlimit="10" stroke-linecap="round" stroke-linejoin="round" />
    <path
        d="M8.52019 9.69931L7.48701 5.8519C7.42797 5.63542 7.23116 5.48782 7.01468 5.48782H4.02336C3.46249 5.48782 3 5.94045 3 6.51117C3 7.07205 3.45265 7.53453 4.02336 7.53453H6.45383"
        stroke="currentColor" stroke-miterlimit="10" stroke-linecap="round" stroke-linejoin="round" />
    <path
        d="M10.7477 18.5122C11.351 18.5122 11.84 18.0232 11.84 17.42C11.84 16.8167 11.351 16.3277 10.7477 16.3277C10.1445 16.3277 9.65552 16.8167 9.65552 17.42C9.65552 18.0232 10.1445 18.5122 10.7477 18.5122Z"
        fill="currentColor" />
    <path
        d="M17.8521 18.5122C18.4553 18.5122 18.9444 18.0232 18.9444 17.42C18.9444 16.8167 18.4553 16.3277 17.8521 16.3277C17.2489 16.3277 16.7599 16.8167 16.7599 17.42C16.7599 18.0232 17.2489 18.5122 17.8521 18.5122Z"
        fill="currentColor" />
</svg>